<?xml version="1.0" encoding="utf-8"?>
<!-- Generator: Adobe Illustrator 16.0.0, SVG Export Plug-In . SVG Version: 6.00 Build 0)  -->
<!DOCTYPE svg PUBLIC "-//W3C//DTD SVG 1.1//EN" "http://www.w3.org/Graphics/SVG/1.1/DTD/svg11.dtd">
<svg version="1.1" id="Capa_1" xmlns="http://www.w3.org/2000/svg" xmlns:xlink="http://www.w3.org/1999/xlink" x="0px" y="0px"
	 width="200px" height="200px" viewBox="0 0 200 200" enable-background="new 0 0 200 200" xml:space="preserve">
<g>
	<path fill="#FFFFFF" d="M65.847,129.668c-2.764-21.326-82.122-29.202-46.6-79.774C64.865-15.052,133.852,4.688,160.627,23.04
		c70.294,48.179-7.898,100.309-9.873,118.87c-41.753,17.783-71,17.482-89.558,37.586c0,0,59.613-16.246,81.265-15.471
		c-31.701,10.822-65.427,19.205-77.798,30.803c0,0,32.778-12.242,52.918-8.293"/>
	<path fill="#FFF100" d="M65.457,129.729c-0.362-2.043-1.456-3.823-2.813-5.359c-1.37-1.535-2.992-2.853-4.679-4.08
		c-3.399-2.44-7.13-4.452-10.856-6.484c-7.481-4.024-15.207-7.823-22.378-12.875c-3.57-2.531-7.044-5.35-10.015-8.808
		c-2.958-3.436-5.415-7.575-6.59-12.203c-1.199-4.616-1.058-9.526,0.029-14.026c1.092-4.521,2.97-8.704,5.183-12.589
		c1.114-1.957,2.289-3.804,3.586-5.662l1.85-2.611l1.99-2.654c2.676-3.473,5.502-6.824,8.556-9.987
		c6.083-6.335,12.935-12.005,20.463-16.663c7.53-4.638,15.72-8.296,24.282-10.602c8.553-2.325,17.411-3.474,26.232-3.418
		c8.824,0.059,17.597,1.231,26.108,3.333c8.502,2.147,16.763,5.183,24.569,9.173c3.909,2.017,7.661,4.218,11.313,6.84l2.558,1.925
		c0.853,0.645,1.718,1.371,2.574,2.052c0.871,0.681,1.679,1.413,2.507,2.126c0.834,0.704,1.637,1.448,2.431,2.202
		c6.337,5.986,12.044,12.962,15.428,21.169c0.895,2.02,1.541,4.145,2.124,6.273c0.515,2.149,0.91,4.327,1.1,6.525
		c0.359,4.394,0.126,8.823-0.738,13.111c-0.835,4.295-2.242,8.441-3.941,12.426c-1.682,3.999-3.724,7.821-5.937,11.521
		c-4.443,7.397-9.593,14.297-14.779,21.085c-2.573,3.405-5.182,6.78-7.587,10.225c-1.189,1.727-2.336,3.476-3.3,5.251
		c-0.949,1.755-1.763,3.625-1.9,5.185c-0.066,0.755-0.54,1.376-1.186,1.665l-0.069,0.031c-1.88,0.838-3.751,1.703-5.647,2.507
		c-1.887,0.829-3.794,1.605-5.697,2.396c-3.82,1.545-7.67,3.017-11.541,4.421c-3.867,1.415-7.766,2.729-11.668,3.996
		s-7.797,2.526-11.685,3.735c-3.883,1.223-7.741,2.46-11.526,3.796c-1.895,0.665-3.767,1.354-5.62,2.075
		c-1.845,0.731-3.668,1.492-5.448,2.314c-1.776,0.826-3.53,1.682-5.208,2.635c-1.696,0.932-3.316,1.957-4.893,3.031
		c-1.549,1.106-3.078,2.236-4.48,3.501c-1.435,1.23-2.752,2.581-4.042,3.955l-3.963-6.527c3.373-0.94,6.708-1.837,10.069-2.724
		l10.083-2.595c6.729-1.711,13.507-3.231,20.309-4.697c6.809-1.433,13.638-2.839,20.581-3.858c3.469-0.525,6.957-0.993,10.5-1.332
		c1.772-0.169,3.555-0.312,5.366-0.396c1.807-0.095,3.657-0.108,5.546-0.052l0.018,0.001c2.215,0.065,3.956,1.915,3.891,4.129
		c-0.052,1.731-1.2,3.175-2.753,3.69c-3.352,1.105-6.698,2.204-10.061,3.241l-10.079,3.073c-6.716,2.022-13.408,4.056-20.06,6.128
		c-6.646,2.08-13.249,4.251-19.635,6.794c-1.597,0.635-3.18,1.288-4.742,1.976c-1.561,0.688-3.099,1.411-4.596,2.186
		c-2.993,1.543-5.859,3.285-8.262,5.376l-2.514-4.053c1.126-0.382,2.197-0.721,3.298-1.052l3.29-0.955
		c2.196-0.616,4.401-1.192,6.616-1.729c4.428-1.078,8.896-1.997,13.409-2.659c2.253-0.344,4.518-0.625,6.789-0.839
		c2.27-0.222,4.55-0.367,6.833-0.416c1.14-0.039,2.284-0.02,3.425-0.011c1.143,0.036,2.283,0.078,3.423,0.19
		c1.138,0.09,2.274,0.234,3.402,0.409c1.13,0.166,2.248,0.409,3.359,0.659c0.213,0.048,0.347,0.26,0.299,0.472
		c-0.045,0.2-0.234,0.33-0.433,0.306l-0.019-0.002c-1.108-0.138-2.213-0.268-3.327-0.322c-1.112-0.063-2.226-0.096-3.339-0.075
		c-2.227,0.023-4.451,0.145-6.667,0.381c-2.216,0.222-4.423,0.538-6.618,0.929c-2.196,0.383-4.381,0.83-6.554,1.339
		c-2.173,0.504-4.334,1.057-6.484,1.654c-2.153,0.584-4.296,1.207-6.426,1.869c-2.13,0.662-4.249,1.362-6.351,2.1l-3.141,1.132
		c-1.033,0.389-2.095,0.781-3.083,1.178c-1.241,0.496-2.649-0.106-3.146-1.348c-0.376-0.939-0.122-1.975,0.563-2.639l0.07-0.066
		c2.758-2.667,5.836-4.735,8.972-6.575c1.57-0.92,3.163-1.774,4.769-2.587c1.607-0.806,3.221-1.593,4.853-2.317
		c6.524-2.918,13.155-5.404,19.792-7.792c6.639-2.383,13.313-4.566,19.95-6.806l9.938-3.361l9.89-3.394l1.155,7.82
		c-1.564-0.018-3.17,0.014-4.813,0.127c-1.638,0.104-3.297,0.264-4.961,0.449c-3.329,0.371-6.684,0.875-10.037,1.438
		c-1.677,0.272-3.354,0.583-5.032,0.887l-5.039,0.927c-3.36,0.64-6.72,1.31-10.074,2.022c-6.715,1.399-13.403,2.984-20.105,4.518
		l-10.033,2.4c-3.334,0.818-6.686,1.658-9.983,2.519l-0.135,0.034c-2.108,0.55-4.263-0.714-4.813-2.822
		c-0.359-1.379,0.063-2.783,0.984-3.739c1.53-1.58,3.103-3.124,4.806-4.513c1.67-1.429,3.46-2.693,5.266-3.914
		c1.827-1.183,3.69-2.297,5.6-3.287c1.899-1.018,3.842-1.909,5.79-2.759c7.813-3.367,15.8-5.631,23.682-7.862l11.808-3.245
		c3.919-1.093,7.824-2.197,11.711-3.354c3.885-1.162,7.746-2.391,11.584-3.691c3.831-1.316,7.637-2.709,11.414-4.182l-1.255,1.695
		c0.413-2.7,1.562-4.729,2.695-6.671c1.166-1.923,2.457-3.684,3.765-5.415c2.616-3.456,5.357-6.733,8.055-10.036
		c2.714-3.288,5.339-6.627,7.889-10.014c2.542-3.392,4.982-6.854,7.178-10.46c2.194-3.603,4.212-7.311,5.87-11.167
		c0.849-1.92,1.565-3.892,2.181-5.889c0.635-1.992,1.129-4.021,1.511-6.065c0.762-4.086,0.993-8.268,0.486-12.364
		c-0.244-2.049-0.68-4.065-1.221-6.048c-0.609-1.964-1.268-3.916-2.165-5.772c-1.718-3.744-4.05-7.188-6.685-10.37
		c-2.636-3.188-5.636-6.079-8.825-8.747c-0.793-0.672-1.595-1.333-2.43-1.959c-0.827-0.632-1.641-1.29-2.487-1.874
		c-0.85-0.599-1.652-1.205-2.536-1.798l-2.663-1.777c-3.372-2.225-7.07-4.232-10.814-5.982c-7.521-3.518-15.457-6.191-23.561-7.967
		c-8.098-1.795-16.373-2.772-24.619-2.664c-8.241,0.064-16.46,1.107-24.366,3.306c-7.895,2.211-15.509,5.428-22.533,9.699
		c-7.027,4.264-13.476,9.498-19.261,15.417c-2.886,2.964-5.649,6.074-8.237,9.317l-1.897,2.43l-1.898,2.576
		c-1.182,1.614-2.348,3.338-3.386,5.066c-2.095,3.467-3.819,7.117-4.827,10.878c-1.032,3.75-1.284,7.616-0.477,11.314
		c0.789,3.702,2.636,7.193,5.114,10.31c2.476,3.125,5.507,5.929,8.773,8.487c6.57,5.109,13.963,9.354,21.227,13.895
		c3.636,2.271,7.251,4.648,10.602,7.439c1.666,1.402,3.252,2.941,4.57,4.727c1.307,1.768,2.341,3.877,2.526,6.095l0.002,0.021
		c0.018,0.217-0.144,0.408-0.361,0.426C65.674,130.071,65.493,129.928,65.457,129.729z"/>
</g>
</svg>
