<?xml version="1.0" encoding="utf-8"?>
<!-- Generator: Adobe Illustrator 16.0.0, SVG Export Plug-In . SVG Version: 6.00 Build 0)  -->
<!DOCTYPE svg PUBLIC "-//W3C//DTD SVG 1.1//EN" "http://www.w3.org/Graphics/SVG/1.1/DTD/svg11.dtd">
<svg version="1.1" id="Capa_1" xmlns="http://www.w3.org/2000/svg" xmlns:xlink="http://www.w3.org/1999/xlink" x="0px" y="0px"
	 width="95px" height="95px" viewBox="0 0 95 95" enable-background="new 0 0 95 95" xml:space="preserve">
<circle fill="#AFF2ED" stroke="#2B5DAD" stroke-width="5" stroke-miterlimit="10" cx="48" cy="48" r="44"/>
<g>
	
		<path fill="#2B5DAD" stroke="#2B5DAD" stroke-width="3.9135" stroke-linecap="round" stroke-linejoin="round" stroke-miterlimit="10" d="
		M36.024,61.425C12.934,62.077,6.411,45.118,5.499,41.466c12.001-3.131,28.177-0.521,35.222,2.093
		C47.634,45.901,41.112,52.945,36.024,61.425z"/>
	
		<path fill="#2B5DAD" stroke="#2B5DAD" stroke-width="3.9135" stroke-linecap="round" stroke-linejoin="round" stroke-miterlimit="10" d="
		M57.809,60.643c23.09,0.652,29.612-16.307,30.525-19.959c-12.002-3.131-28.178-0.521-35.223,2.093
		C46.198,45.119,52.721,52.163,57.809,60.643z"/>
	
		<line fill="#2B5DAD" stroke="#2B5DAD" stroke-width="4" stroke-linecap="round" stroke-linejoin="round" stroke-miterlimit="10" x1="41.5" y1="44.5" x2="50.5" y2="44.5"/>
</g>
<path fill="#AFF2ED" d="M20.333,42c0,0-8.333-0.333-11.333,1s3,9.334,4.667,9S13.333,48.333,20.333,42z"/>
<path fill="#AFF2ED" d="M65.667,41.333c0,0-8.667,2.333-11.667,3.667s3,9.334,4.667,9S58.667,47.667,65.667,41.333z"/>
</svg>
