<?xml version="1.0" encoding="utf-8"?>
<!-- Generator: Adobe Illustrator 16.0.0, SVG Export Plug-In . SVG Version: 6.00 Build 0)  -->
<!DOCTYPE svg PUBLIC "-//W3C//DTD SVG 1.1//EN" "http://www.w3.org/Graphics/SVG/1.1/DTD/svg11.dtd">
<svg version="1.1" id="Capa_1" xmlns="http://www.w3.org/2000/svg" xmlns:xlink="http://www.w3.org/1999/xlink" x="0px" y="0px"
	 width="792px" height="380px" viewBox="0 0 792 380" enable-background="new 0 0 792 380" xml:space="preserve">
<linearGradient id="path3252-6-5_1_" gradientUnits="userSpaceOnUse" x1="-1003.4453" y1="-1200.6699" x2="-982.59" y2="-1291.2223" gradientTransform="matrix(-0.503 0.0034 -0.0028 -0.4926 -71.6894 -380.8855)">
	<stop  offset="0" style="stop-color:#F6D74B"/>
	<stop  offset="1" style="stop-color:#CA171E"/>
</linearGradient>
<path id="path3252-6-5" fill="url(#path3252-6-5_1_)" d="M378.173,248.994c-0.152-26.704,21.829-48.505,49.1-48.691
	c27.269-0.188,49.496,21.312,49.648,48.018l0,0l-49.374,0.338L378.173,248.994z"/>
<linearGradient id="rect3254-0-9_1_" gradientUnits="userSpaceOnUse" x1="579.8096" y1="588.5381" x2="695.6169" y2="700.1971" gradientTransform="matrix(0.3643 0.9313 0.9313 -0.3643 -609.0049 -61.8405)">
	<stop  offset="0" style="stop-color:#22B6CD"/>
	<stop  offset="1" style="stop-color:#193181"/>
</linearGradient>
<path id="rect3254-0-9" fill="url(#rect3254-0-9_1_)" stroke="#797A31" stroke-width="0.5366" d="M75.051,348.115L75.051,348.115
	c7.444,19.028,29.912,28.027,50.182,20.098l206.291-80.702c20.271-7.931,30.668-29.784,23.223-48.815l0,0
	c-7.444-19.027-29.912-28.026-50.183-20.098l-206.29,80.703C78.003,307.23,67.607,329.085,75.051,348.115z"/>
<linearGradient id="rect3256-2-5_1_" gradientUnits="userSpaceOnUse" x1="-595.9331" y1="-172.1406" x2="-686.3909" y2="-261.3398" gradientTransform="matrix(0.2341 -0.9722 -0.9722 -0.2341 214.1085 -532.5981)">
	<stop  offset="0" style="stop-color:#00ABBD"/>
	<stop  offset="0.1553" style="stop-color:#009AA7"/>
	<stop  offset="0.4767" style="stop-color:#00797D"/>
	<stop  offset="0.9332" style="stop-color:#004B4B"/>
	<stop  offset="1" style="stop-color:#014444"/>
</linearGradient>
<path id="rect3256-2-5" fill="url(#rect3256-2-5_1_)" stroke="#797A31" stroke-width="0.4107" d="M396.932,185.769L396.932,185.769
	c3.662-15.204-6.499-30.691-22.693-34.592l-164.822-39.692c-16.195-3.9-32.292,5.264-35.954,20.468l0,0
	c-3.662,15.204,6.5,30.691,22.695,34.591l164.821,39.692C377.174,210.137,393.271,200.973,396.932,185.769z"/>
<linearGradient id="rect3258-4-1_1_" gradientUnits="userSpaceOnUse" x1="235.2627" y1="1634.5117" x2="315.0164" y2="1709.5037" gradientTransform="matrix(-0.8643 0.503 0.503 0.8643 -204.8609 -1473.8936)">
	<stop  offset="0" style="stop-color:#60BD68"/>
	<stop  offset="1" style="stop-color:#003619"/>
</linearGradient>
<path id="rect3258-4-1" fill="url(#rect3258-4-1_1_)" stroke="#797A31" stroke-width="0.3431" d="M352.168,19.538L352.168,19.538
	c-11.292,6.573-14.771,21.651-7.771,33.679l71.244,122.416c7,12.028,21.829,16.452,33.121,9.88l0,0
	c11.292-6.572,14.772-21.65,7.771-33.679L385.291,29.418C378.29,17.391,363.46,12.966,352.168,19.538z"/>
<linearGradient id="rect3260-8-0_1_" gradientUnits="userSpaceOnUse" x1="1510.2227" y1="-332.8745" x2="1568.0692" y2="-272.8575" gradientTransform="matrix(0.9511 0.3089 0.3107 -0.9505 -866.6577 -622.2167)">
	<stop  offset="0" style="stop-color:#003F14"/>
	<stop  offset="1" style="stop-color:#BED747"/>
</linearGradient>
<path id="rect3260-8-0" fill="url(#rect3260-8-0_1_)" stroke="#797A31" stroke-width="0.2719" d="M481.553,212.355L481.553,212.355
	c9.845,3.196,20.604-2.713,24.032-13.203l34.898-106.744c3.43-10.488-1.771-21.583-11.615-24.78l0,0
	c-9.844-3.197-20.604,2.714-24.032,13.202l-34.897,106.746C466.509,198.063,471.709,209.158,481.553,212.355z"/>
<linearGradient id="rect3262-6-6_1_" gradientUnits="userSpaceOnUse" x1="-365.9746" y1="-386.9189" x2="-318.8457" y2="-336.2581" gradientTransform="matrix(-0.3766 -0.9264 -0.9264 0.3766 69.6955 32.3469)">
	<stop  offset="0" style="stop-color:#F0E902"/>
	<stop  offset="1" style="stop-color:#2E5F21"/>
</linearGradient>
<path id="rect3262-6-6" fill="url(#rect3262-6-6_1_)" stroke="#797A31" stroke-width="0.2082" d="M595.247,194.35L595.247,194.35
	c-2.987-7.345-11.749-10.72-19.571-7.54l-79.604,32.368c-7.822,3.18-11.743,11.713-8.757,19.055l0,0
	c2.984,7.344,11.747,10.72,19.568,7.539l79.605-32.367C594.311,210.223,598.232,201.691,595.247,194.35z"/>
<g id="text4061-5-4" transform="matrix(0.96592003,0,0,0.96592003,138.45023,14.783955)">
	<path id="path4726" d="M-25.771,310.977c1.771,0,2.657,1.09,2.657,3.27c0,2.271-2.521,5.518-7.562,9.742
		c-5.041,4.223-10.865,7.585-17.473,10.082c-6.609,2.498-12.66,3.748-18.154,3.748c-8.04,0-15.363-2.658-21.97-7.971
		c-6.608-5.314-9.912-13.012-9.912-23.094c0-18.392,7.913-36.3,23.74-53.715c15.827-17.418,31.076-26.126,45.745-26.126
		c5.495,0,9.889,1.691,13.182,5.076c3.292,3.383,4.939,7.322,4.939,11.819c0,4.179-0.239,7.471-0.715,9.877
		c-0.478,2.408-1.919,4.441-4.326,6.097c-2.407,1.658-4.338,2.487-5.791,2.487c-1.045,0-1.954-0.453-2.725-1.363
		c-0.772-0.908-1.158-2.135-1.158-3.678c0-1.044,0.386-3.225,1.158-6.539c0.771-3.272,1.158-5.7,1.158-7.289
		c0-4.633-2.021-6.95-6.063-6.95c-6.267,0-14.022,3.599-23.264,10.799c-9.243,7.198-17.088,16.327-23.537,27.384
		c-6.449,11.057-9.673,21.244-9.673,30.555c0,6.222,1.851,11.387,5.552,15.498c3.701,4.11,8.981,6.164,15.839,6.164
		c3.952,0,8.754-0.989,14.409-2.963c5.654-1.976,10.842-4.621,15.566-7.938c4.723-3.314,7.517-4.972,8.38-4.972H-25.771
		L-25.771,310.977z"/>
	<path id="path4728" d="M14.355,304.508c0.453-0.817,0.998-1.952,1.634-3.406c3.088-7.084,5.927-12.638,8.516-16.655
		c2.588-4.019,5.438-7.869,8.549-11.547c3.11-3.678,5.949-6.472,8.515-8.378c2.566-1.908,4.894-3.236,6.983-3.984
		c2.089-0.75,4.11-1.124,6.062-1.124c3.952,0,7.176,1.191,9.674,3.577c2.498,2.384,3.747,5.164,3.747,8.344
		c0,1.408-0.443,2.68-1.328,3.816c-0.886,1.135-2.237,1.704-4.053,1.704c-1.908,0-3.656-0.84-5.245-2.52
		c-1.635-1.679-3.338-2.52-5.11-2.52c-4.723,0-11.263,5.723-19.619,17.167c-8.357,11.446-13.443,24.047-15.26,37.808
		c-0.454,3.544-1.317,5.882-2.589,7.018c-1.272,1.135-3.065,1.704-5.382,1.704c-2.225,0-3.837-1.658-4.837-4.972
		c-0.999-3.316-1.499-8.902-1.499-16.76c0-2.134,0.114-6.835,0.341-14.102c0.272-8.584,0.817-15.51,1.635-20.776
		c0.136-0.862,0.363-2.884,0.681-6.064c0.317-3.496,0.715-5.927,1.192-7.287c0.477-1.363,1.453-2.637,2.929-3.816
		c1.476-1.181,3.077-1.771,4.803-1.771c1.68,0,2.941,0.535,3.78,1.601c0.841,1.068,1.26,2.214,1.261,3.44
		c0,1.77-0.454,4.268-1.363,7.493c-1.044,3.588-1.658,6.064-1.84,7.427c-0.136,1.543-0.386,3.154-0.749,4.837
		c-0.454,1.953-0.908,7.083-1.363,15.396l-0.067,2.519L14.355,304.508z"/>
	<path id="path4730" d="M130.026,308.46c0,4.633-4.099,10.219-12.295,16.76c-8.198,6.539-16.657,9.809-25.376,9.809
		c-7.312,0-12.954-2.157-16.928-6.472c-3.974-4.314-5.96-10.333-5.96-18.053c0-12.989,4.383-25.341,13.148-37.059
		c8.764-11.718,18.347-17.576,28.747-17.576c3.406,0,6.188,1.111,8.345,3.336c2.158,2.226,3.236,4.905,3.236,8.04
		c0,6.993-3.429,13.693-10.287,20.095c-6.858,6.406-16.032,12.694-27.522,18.872c-2.361,1.225-3.543,2.817-3.543,4.768
		c0,3.771,1.09,6.791,3.271,9.063c2.18,2.27,5.404,3.405,9.673,3.405c9.764,0,19.733-5.404,29.906-16.214
		c1.499-1.498,2.634-2.249,3.406-2.249C129.301,304.985,130.027,306.144,130.026,308.46L130.026,308.46z M82.681,297.833
		c19.257-11.445,28.884-20.641,28.884-27.591c0-2.724-1.226-4.088-3.679-4.088c-4.179,0-8.889,3.064-14.135,9.197
		c-5.246,6.131-8.936,13.624-11.071,22.481l0,0H82.681z"/>
	<path id="path4732" d="M190.116,306.752c-6.359,8.538-12.648,14.941-18.871,19.21c-6.221,4.27-11.921,6.404-17.099,6.404
		c-3.497,0-6.517-1.476-9.06-4.427c-2.543-2.952-3.815-6.746-3.815-11.377c0-11.944,5.337-24.808,16.009-38.592
		c10.672-13.784,21.278-20.675,31.814-20.675c3.815,0,6.654,2.18,8.515,6.539c0.591,1.454,1.522,2.18,2.794,2.18
		c3.633,0,5.449,1.407,5.449,4.224c0,1.407-0.226,3.336-0.681,5.789c-2.452,13.398-3.679,22.845-3.679,28.341
		c0,10.991,2.089,17.577,6.267,19.755c1.998,1.091,2.998,2.429,2.998,4.02c0,1.406-0.976,2.827-2.929,4.256
		c-1.952,1.432-3.837,2.146-5.654,2.146c-3.498,0-6.381-2.407-8.652-7.223C191.252,322.512,190.116,315.653,190.116,306.752
		L190.116,306.752z M185.96,268.398c-5.995,0-12.966,5.619-20.914,16.861c-7.948,11.242-11.921,20.562-11.921,27.965
		c0,5.223,1.725,7.834,5.177,7.834c4.995,0,11.92-5.041,20.776-15.123c8.857-10.083,13.285-19.347,13.285-27.795
		C192.364,271.648,190.23,268.399,185.96,268.398L185.96,268.398z"/>
	<path id="path4734" d="M272.611,279.166c-2.362,0-4.939,1.545-7.732,4.632c-2.793,3.088-7.051,10.013-12.773,20.776
		c-7.539,14.442-12.41,22.663-14.613,24.661c-2.202,1.999-4.03,2.997-5.483,2.997c-5.359,0-8.038-2.588-8.038-7.765
		c0-2.182,0.362-5.268,1.089-9.265c2.497-13.716,3.746-28.181,3.746-43.395c0-1.725,0.738-3.644,2.215-5.757
		c1.476-2.111,2.872-3.169,4.189-3.169c2.361,0,4.042,0.727,5.041,2.181c0.998,1.453,1.499,4.383,1.499,8.787
		c0,4.588-1.363,14.035-4.088,28.34c-0.908,4.724-1.363,7.72-1.363,8.992c0,0.728,0.182,1.091,0.545,1.091
		c0.682,0,3.838-5.427,9.47-16.281c5.677-11.035,10.651-18.801,14.919-23.298c4.27-4.495,8.97-6.743,14.104-6.743
		c4.087,0,7.413,1.861,9.979,5.585c2.566,3.725,4.439,10.515,5.621,20.37c1.27,11.216,2.417,18.199,3.438,20.946
		c1.022,2.749,2.646,4.123,4.871,4.123c1.407,0,3.179-0.499,5.314-1.498c0.364-0.181,0.636-0.272,0.817-0.272
		c1.952,0,2.93,1.133,2.93,3.404c0,1.999-1.341,4.123-4.02,6.37c-2.68,2.247-5.904,3.372-9.673,3.372
		c-3.859,0-6.846-1.533-8.958-4.597c-2.113-3.065-3.781-11.253-5.008-24.56C279.378,285.84,276.696,279.166,272.611,279.166
		L272.611,279.166z"/>
	<path id="path4736" d="M331.881,316.429c0,3.453,0.476,7.334,1.431,11.648c0.183,0.818,0.273,1.499,0.273,2.044
		c0,0.817-0.749,1.873-2.25,3.168c-1.498,1.293-3.088,1.941-4.768,1.941c-4.405,0-6.608-4.041-6.608-12.125
		c0-8.357,1.726-21.572,5.177-39.648c1.181-6.313,1.77-10.195,1.77-11.649c0-2.86,0.523-5.302,1.567-7.324
		c1.043-2.02,2.519-3.031,4.427-3.031c2.316,0,4.144,0.556,5.485,1.669c1.34,1.112,2.009,2.351,2.009,3.712
		s-0.316,3.155-0.952,5.381c-3.406,11.992-5.518,20.574-6.336,25.753c-0.818,5.176-1.226,11.332-1.226,18.46h0.001V316.429z"/>
	<path id="path4738" d="M410.632,277.666c-4.224,0.092-13.264,12.602-27.112,37.536c-4.679,8.402-7.404,12.976-8.175,13.727
		c-0.772,0.749-2.192,1.419-4.258,2.009c-2.065,0.59-3.78,0.888-5.143,0.888c-3.043,0-4.564-5.928-4.564-17.781
		c0-6.677,1.431-18.756,4.292-36.242c1.181-7.085,1.77-12.146,1.77-15.192c0-2.999,1.341-4.497,4.02-4.497
		c5.042,0,7.561,3.635,7.561,10.901c0,3.406-0.84,10.082-2.519,20.027c-1.952,11.355-2.953,18.258-2.998,20.71
		c2.816-2.725,6.949-8.698,12.398-17.916c7.72-12.625,13.408-20.63,17.065-24.013c3.656-3.384,7.436-5.074,11.344-5.074
		c2.951,0,5.302,1.976,7.05,5.927c1.749,3.951,2.805,13.375,3.169,28.271c0.092,3.724,0.432,6.494,1.021,8.312
		c0.59,1.817,1.022,2.724,1.295,2.724c2.134,0,6.767-7.265,13.895-21.798c3.816-7.676,7.529-13.511,11.138-17.508
		c3.61-3.999,7.619-5.994,12.023-5.995c3.679,0.001,6.358,1.896,8.041,5.688c1.679,3.793,2.881,9.414,3.609,16.861
		c0.679,7.539,1.737,14.442,3.167,20.711c1.431,6.266,4.053,10.286,7.87,12.056c2.588,1.226,3.882,2.658,3.882,4.292
		c0,1.589-1.09,3.225-3.271,4.905c-2.181,1.68-4.178,2.52-5.995,2.52c-3.632,0-6.88-2.226-9.74-6.678
		c-2.861-4.451-5.019-14.077-6.473-28.884c-0.636-5.95-1.25-10.174-1.839-12.67c-0.59-2.497-1.522-3.747-2.793-3.747
		c-1.908,0-4.165,1.816-6.778,5.449c-2.61,3.634-6.823,11.013-12.637,22.138c-4.543,8.677-7.982,14.455-10.323,17.339
		c-2.339,2.882-4.598,4.324-6.778,4.324c-1.953,0-3.701-0.784-5.245-2.35c-1.545-1.566-2.519-3.453-2.93-5.655
		c-0.407-2.203-0.84-7.62-1.294-16.246c-0.68-14.351-1.93-22.708-3.747-25.071L410.632,277.666z"/>
	<path id="path4740" d="M550.624,301.918c-5.811,9.765-11.761,17.328-17.846,22.685c-6.086,5.36-11.74,8.041-16.963,8.041
		c-3,0-6.052-1.749-9.162-5.246c-3.111-3.496-4.668-8.878-4.668-16.144c0-5.95,1.432-14.715,4.293-26.297
		c2.406-9.673,3.609-16.463,3.609-20.368c1.316-2.726,3.385-4.089,6.201-4.089c1.907,0,3.427,0.669,4.564,2.01
		c1.136,1.341,1.704,2.736,1.704,4.19c0,3.179-1.113,7.698-3.337,13.556c-4.224,11.4-6.336,21.188-6.336,29.362
		c0,7.447,1.727,11.173,5.176,11.173c4.406,0,10.015-3.748,16.826-11.243c6.813-7.493,12.649-17.937,17.508-31.335
		c1.909-5.358,3.464-8.844,4.667-10.457c1.203-1.614,2.829-2.418,4.871-2.418c3.089,0,4.633,2.044,4.633,6.131
		c0,0.499-0.432,2.159-1.294,4.973c-2.726,9.946-4.089,19.347-4.089,28.203c0,10.627,1.749,17.508,5.245,20.641
		c1.818,1.681,2.726,3.043,2.726,4.087c0,1.272-0.919,2.43-2.758,3.475c-1.839,1.045-3.509,1.567-5.009,1.567
		c-3.179,0-5.746-2.361-7.699-7.084c-1.952-4.722-2.929-11.693-2.928-20.914v-2.246C550.556,303.439,550.579,302.69,550.624,301.918
		L550.624,301.918z"/>
	<path id="path4742" d="M621.81,315.953c0-2.952-3.635-6.314-10.901-10.084c-9.219-4.721-15.452-8.503-18.701-11.342
		c-3.246-2.839-4.87-6.006-4.87-9.503c0-9.04,4.53-16.532,13.591-22.483c9.06-5.949,16.452-8.923,22.175-8.923
		c3.677,0,6.346,0.637,8.002,1.908c1.659,1.271,2.487,3.475,2.487,6.609c0,1.407-0.603,2.61-1.805,3.609
		c-1.204,1-2.146,1.498-2.827,1.498c-0.499,0-1.476-0.341-2.93-1.021c-1.454-0.635-2.407-0.952-2.86-0.952
		c-2.272,0-6.881,1.657-13.832,4.972c-6.948,3.314-10.422,7.062-10.422,11.239c0,2.543,1.226,4.848,3.679,6.913
		c2.452,2.068,6.858,4.599,13.215,7.597c5.132,2.452,9.231,5.075,12.296,7.868c3.065,2.793,4.598,6.075,4.598,9.844
		c0,6.949-4.79,12.386-14.374,16.316c-9.582,3.929-18.734,5.893-27.454,5.893c-7.356,0-11.035-2.498-11.035-7.495
		c0-1.725,0.828-2.999,2.486-3.816c1.658-0.818,3.326-1.225,5.008-1.225c0.681,0,1.977,0.226,3.882,0.68
		c1.863,0.455,3.089,0.681,3.679,0.681c5.042,0,10.446-0.84,16.214-2.521c5.768-1.679,9.334-3.769,10.697-6.265L621.81,315.953
		L621.81,315.953z"/>
</g>
</svg>
